<?xml version="1.0" encoding="UTF-8"?>
<!DOCTYPE svg [
	<!ENTITY ns_flows "http://ns.adobe.com/Flows/1.0/">
	<!ENTITY ns_extend "http://ns.adobe.com/Extensibility/1.0/">
	<!ENTITY ns_ai "http://ns.adobe.com/AdobeIllustrator/10.0/">
	<!ENTITY ns_graphs "http://ns.adobe.com/Graphs/1.0/">
]>
<svg baseProfile="tiny" version="1.2" viewBox="0 0 108 16" xml:space="preserve" xmlns="http://www.w3.org/2000/svg">
		<linearGradient id="a" x1="8" x2="8" y1="8" gradientUnits="userSpaceOnUse">
			<stop stop-color="#FA5E5A" offset="0"/>
			<stop stop-color="#f80" offset="1"/>
		</linearGradient>
		<path d="m8 0c-4.418 0-8 3.582-8 8h16c0-4.418-3.582-8-8-8z" fill="url(#a)"/>
		<path d="M0.085,9c0.072,0.574,0.185,1.137,0.372,1.667h15.086c0.188-0.53,0.3-1.093,0.372-1.667H0.085z M8,16    c1.837,0,3.523-0.625,4.874-1.666H3.126C4.476,15.375,6.163,16,8,16z M2.039,13.333h11.922c0.446-0.498,0.806-1.067,1.116-1.666    H0.922C1.233,12.266,1.593,12.835,2.039,13.333z" fill="#CF5278"/>
		<g fill="#CF5278">
			<path d="m85.852 3.757h1.127v8.612h-1.307l-4.378-6.957h-0.024v6.957h-1.127v-8.612h1.379l4.306 6.956h0.024v-6.956z"/>
			<path d="m92.561 12.596c-3.215 0-4.197-2.674-4.197-4.533s0.982-4.533 4.197-4.533 4.197 2.674 4.197 4.533-0.983 4.533-4.197 4.533zm0-8.035c-1.871 0-2.998 1.476-2.998 3.502 0 2.027 1.127 3.501 2.998 3.501s2.998-1.475 2.998-3.501-1.127-3.502-2.998-3.502z"/>
			<path d="m100.53 12.369h-1.225l-2.242-8.612h1.26l1.607 7.004h0.023l1.932-7.004h1.27l1.932 7.004h0.023l1.607-7.004h1.284l-2.266 8.612h-1.225l-1.967-7.136h-0.023l-1.99 7.136z"/>
		</g>
		<g fill="#B2B2B2">
			<path d="m24.29 12.306h-1.224l-2.243-8.611h1.259l1.607 7.004h0.024l1.931-7.004h1.271l1.931 7.004h0.024l1.607-7.004h1.283l-2.267 8.611h-1.224l-1.964-7.136h-0.024l-1.991 7.136z"/>
			<path d="m39.348 12.306h-6.357v-8.612h6.273v1.031h-5.109v2.639h4.713v1.031h-4.713v2.879h5.193v1.032z"/>
			<path d="m42.23 9.799l-0.899 2.507h-1.199l3.238-8.611h1.319l3.118 8.611h-1.271l-0.852-2.507h-3.454zm3.035-1.031l-1.271-3.79h-0.024l-1.379 3.79h2.674z"/>
			<path d="M46.695,3.694h6.992v1.031h-2.915v7.58H49.61v-7.58h-2.915V3.694z"/>
			<path d="M60.443,3.694h1.164v8.611h-1.164V8.288h-4.497v4.018h-1.164V3.694h1.164v3.563h4.497V3.694z"/>
			<path d="m69.911 12.306h-6.356v-8.612h6.272v1.031h-5.109v2.639h4.715v1.031h-4.715v2.879h5.193v1.032z"/>
			<path d="m72.747 12.306h-1.164v-8.612h3.982c1.414 0 2.83 0.492 2.83 2.314 0 1.271-0.648 1.739-1.199 2.063 0.492 0.204 0.982 0.42 1.031 1.619l0.073 1.56c0.012 0.479 0.072 0.66 0.432 0.864v0.191h-1.428c-0.168-0.527-0.203-1.835-0.203-2.159 0-0.707-0.145-1.535-1.535-1.535h-2.818v3.695zm0-4.69h2.697c0.852 0 1.752-0.216 1.752-1.487 0-1.331-0.971-1.439-1.547-1.439h-2.902v2.926z"/>
		</g>
</svg>
